<svg xmlns="http://www.w3.org/2000/svg" xmlns:xlink="http://www.w3.org/1999/xlink" width="500" zoomAndPan="magnify" viewBox="0 0 375 374.999991" height="500" preserveAspectRatio="xMidYMid meet" version="1.0"><defs><clipPath id="b20cdc9635"><path d="M 75.511719 0.558594 L 170 0.558594 L 170 198.257812 L 75.511719 198.257812 Z M 75.511719 0.558594 " clip-rule="nonzero"/></clipPath><clipPath id="98f35b556f"><path d="M 173.410156 0.558594 L 268 0.558594 L 268 198.257812 L 173.410156 198.257812 Z M 173.410156 0.558594 " clip-rule="nonzero"/></clipPath><clipPath id="d51c3ecfa5"><path d="M 0.410156 0.703125 L 94.679688 0.703125 L 94.679688 198.257812 L 0.410156 198.257812 Z M 0.410156 0.703125 " clip-rule="nonzero"/></clipPath><clipPath id="05565d1ef8"><rect x="0" width="95" y="0" height="199"/></clipPath><clipPath id="02022fe3de"><path d="M 0.128906 97.484375 L 155 97.484375 L 155 187.839844 L 0.128906 187.839844 Z M 0.128906 97.484375 " clip-rule="nonzero"/></clipPath><clipPath id="5132c7c414"><path d="M 187 97.484375 L 340.15625 97.484375 L 340.15625 187.839844 L 187 187.839844 Z M 187 97.484375 " clip-rule="nonzero"/></clipPath><clipPath id="b0835c5531"><path d="M 0.878906 0.484375 L 153.15625 0.484375 L 153.15625 90.839844 L 0.878906 90.839844 Z M 0.878906 0.484375 " clip-rule="nonzero"/></clipPath><clipPath id="2981a188fe"><rect x="0" width="154" y="0" height="91"/></clipPath><clipPath id="7b4b9cdc21"><rect x="0" width="343" y="0" height="199"/></clipPath></defs><g transform="matrix(1, 0, 0, 1, 16, 88)"><g clip-path="url(#7b4b9cdc21)"><g clip-path="url(#b20cdc9635)"><path fill="#ffffff" d="M 75.511719 98.769531 L 75.511719 100.265625 L 75.625 100.378906 L 169.5 198.183594 L 169.5 98.695312 L 75.511719 0.777344 Z M 75.511719 98.769531 " fill-opacity="1" fill-rule="nonzero"/></g><g clip-path="url(#98f35b556f)"><g transform="matrix(1, 0, 0, 1, 173, 0)"><g clip-path="url(#05565d1ef8)"><g clip-path="url(#d51c3ecfa5)"><path fill="#ffffff" d="M 0.410156 100.191406 L 0.410156 98.695312 L 0.519531 98.582031 L 94.394531 0.777344 L 94.394531 100.265625 L 0.410156 198.183594 Z M 0.410156 100.191406 " fill-opacity="1" fill-rule="nonzero"/></g></g></g></g><g clip-path="url(#02022fe3de)"><path fill="#ffffff" d="M 154.960938 97.484375 L 0.191406 187.839844 L 41.019531 97.484375 Z M 154.960938 97.484375 " fill-opacity="1" fill-rule="nonzero"/></g><g clip-path="url(#5132c7c414)"><g transform="matrix(1, 0, 0, 1, 187, 97)"><g clip-path="url(#2981a188fe)"><g clip-path="url(#b0835c5531)"><path fill="#ffffff" d="M 0.941406 0.484375 L 155.714844 90.839844 L 114.886719 0.484375 Z M 0.941406 0.484375 " fill-opacity="1" fill-rule="nonzero"/></g></g></g></g></g></g></svg>