<svg xmlns="http://www.w3.org/2000/svg" xmlns:xlink="http://www.w3.org/1999/xlink" width="500" zoomAndPan="magnify" viewBox="0 0 375 374.999991" height="500" preserveAspectRatio="xMidYMid meet" version="1.0"><defs><g/><clipPath id="25f11467cc"><path d="M 67.617188 1 L 124 1 L 124 118.125 L 67.617188 118.125 Z M 67.617188 1 " clip-rule="nonzero"/></clipPath><clipPath id="88d8c47387"><path d="M 125.632812 0.921875 L 182 0.921875 L 182 118.125 L 125.632812 118.125 Z M 125.632812 0.921875 " clip-rule="nonzero"/></clipPath><clipPath id="5cf605741a"><path d="M 0.632812 1.054688 L 56.558594 1.054688 L 56.558594 118.125 L 0.632812 118.125 Z M 0.632812 1.054688 " clip-rule="nonzero"/></clipPath><clipPath id="51e315c7f6"><rect x="0" width="57" y="0" height="119"/></clipPath><clipPath id="eaa22077ec"><path d="M 24 59 L 114.738281 59 L 114.738281 111.953125 L 24 111.953125 Z M 24 59 " clip-rule="nonzero"/></clipPath><clipPath id="70d89b68a2"><path d="M 134 59 L 224.445312 59 L 224.445312 111.953125 L 134 111.953125 Z M 134 59 " clip-rule="nonzero"/></clipPath><clipPath id="d70551bad0"><path d="M 0.207031 0.238281 L 90.445312 0.238281 L 90.445312 52.953125 L 0.207031 52.953125 Z M 0.207031 0.238281 " clip-rule="nonzero"/></clipPath><clipPath id="9f50121def"><rect x="0" width="91" y="0" height="53"/></clipPath><clipPath id="13349f92ef"><path d="M 0.839844 133 L 251 133 L 251 237 L 0.839844 237 Z M 0.839844 133 " clip-rule="nonzero"/></clipPath><clipPath id="8db00b6368"><rect x="0" width="251" y="0" height="104"/></clipPath><clipPath id="f3ee2fa5cb"><path d="M 9 226 L 257.640625 226 L 257.640625 254.121094 L 9 254.121094 Z M 9 226 " clip-rule="nonzero"/></clipPath><clipPath id="9f2bfd38b2"><rect x="0" width="249" y="0" height="29"/></clipPath><clipPath id="f4616a4abb"><rect x="0" width="258" y="0" height="255"/></clipPath></defs><g transform="matrix(1, 0, 0, 1, 63, 61)"><g clip-path="url(#f4616a4abb)"><g clip-path="url(#25f11467cc)"><path fill="#100f0d" d="M 67.617188 59.167969 L 67.617188 60.054688 L 67.683594 60.121094 L 123.3125 118.082031 L 123.3125 59.125 L 67.617188 1.101562 Z M 67.617188 59.167969 " fill-opacity="1" fill-rule="nonzero"/></g><g clip-path="url(#88d8c47387)"><g transform="matrix(1, 0, 0, 1, 125, 0)"><g clip-path="url(#51e315c7f6)"><g clip-path="url(#5cf605741a)"><path fill="#100f0d" d="M 0.632812 60.011719 L 0.632812 59.125 L 0.699219 59.058594 L 56.328125 1.101562 L 56.328125 60.054688 L 0.632812 118.082031 Z M 0.632812 60.011719 " fill-opacity="1" fill-rule="nonzero"/></g></g></g></g><g clip-path="url(#eaa22077ec)"><path fill="#100f0d" d="M 114.699219 59.601562 L 24.535156 111.953125 L 48.320312 59.601562 Z M 114.699219 59.601562 " fill-opacity="1" fill-rule="nonzero"/></g><g clip-path="url(#70d89b68a2)"><g transform="matrix(1, 0, 0, 1, 134, 59)"><g clip-path="url(#9f50121def)"><g clip-path="url(#d70551bad0)"><path fill="#100f0d" d="M 0.242188 0.601562 L 90.40625 52.953125 L 66.621094 0.601562 Z M 0.242188 0.601562 " fill-opacity="1" fill-rule="nonzero"/></g></g></g></g><g clip-path="url(#13349f92ef)"><g transform="matrix(1, 0, 0, 1, 0, 133)"><g clip-path="url(#8db00b6368)"><g fill="#100f0d" fill-opacity="1"><g transform="translate(6.978155, 71.383295)"><g><path d="M 8.28125 0 L 8.28125 -54.0625 L 19.328125 -54.0625 L 43.71875 -18.25 L 41.71875 -18.25 L 65.875 -54.0625 L 77 -54.0625 L 77 0 L 66.328125 0 L 66.328125 -39.34375 L 67.328125 -39.34375 L 46.015625 -8.4375 L 39.1875 -8.4375 L 17.796875 -39.421875 L 18.9375 -39.421875 L 18.9375 0 Z M 8.28125 0 "/></g></g></g><g fill="#100f0d" fill-opacity="1"><g transform="translate(99.164608, 71.383295)"><g><path d="M 0.921875 0 L 30.90625 -54.0625 L 41.03125 -54.0625 L 70.9375 0 L 59.125 0 L 51 -15.109375 L 56.21875 -11.65625 L 15.484375 -11.65625 L 20.703125 -15.109375 L 12.578125 0 Z M 35.734375 -43.5625 L 22.09375 -17.875 L 19.25 -20.40625 L 52.453125 -20.40625 L 49.609375 -17.875 L 35.96875 -43.5625 Z M 35.734375 -43.5625 "/></g></g></g><g fill="#100f0d" fill-opacity="1"><g transform="translate(178.006267, 71.383295)"><g><path d="M 8.125 0 L 8.125 -54.0625 L 19.5625 -54.0625 L 19.5625 -30.4375 L 19.78125 -30.4375 L 49.078125 -54.0625 L 63.734375 -54.0625 L 27.984375 -25.921875 L 28.375 -29.59375 L 65.640625 0 L 49.921875 0 L 19.78125 -24.84375 L 19.5625 -24.84375 L 19.5625 0 Z M 8.125 0 "/></g></g></g></g></g></g><g clip-path="url(#f3ee2fa5cb)"><g transform="matrix(1, 0, 0, 1, 9, 226)"><g clip-path="url(#9f2bfd38b2)"><g fill="#100f0d" fill-opacity="1"><g transform="translate(0.302307, 19.452758)"><g><path d="M 6.9375 0 L 0.859375 -14.484375 L 3.265625 -14.484375 L 8.390625 -2.296875 L 7.8125 -2.296875 L 13.234375 -14.484375 L 15.0625 -14.484375 L 20.5 -2.296875 L 19.96875 -2.296875 L 25.109375 -14.484375 L 27.375 -14.484375 L 21.3125 0 L 19.25 0 L 13.96875 -11.734375 L 14.234375 -11.734375 L 8.953125 0 Z M 6.9375 0 "/></g></g></g><g fill="#100f0d" fill-opacity="1"><g transform="translate(44.979791, 19.452758)"><g><path d="M 0.53125 0 L 8.46875 -14.484375 L 10.484375 -14.484375 L 18.390625 0 L 16.0625 0 L 13.84375 -4.109375 L 14.953125 -3.453125 L 3.921875 -3.453125 L 5.046875 -4.109375 L 2.828125 0 Z M 9.40625 -12.34375 L 5.390625 -4.75 L 4.6875 -5.21875 L 14.203125 -5.21875 L 13.5 -4.75 L 9.46875 -12.34375 Z M 9.40625 -12.34375 "/></g></g></g><g fill="#100f0d" fill-opacity="1"><g transform="translate(80.347729, 19.452758)"><g><path d="M 6.765625 0 L 6.765625 -12.640625 L 0.21875 -12.640625 L 0.21875 -14.484375 L 15.515625 -14.484375 L 15.515625 -12.640625 L 8.984375 -12.640625 L 8.984375 0 Z M 6.765625 0 "/></g></g></g><g fill="#100f0d" fill-opacity="1"><g transform="translate(112.530276, 19.452758)"><g><path d="M 10.046875 0.1875 C 8.335938 0.1875 6.851562 -0.101562 5.59375 -0.6875 C 4.332031 -1.28125 3.359375 -2.132812 2.671875 -3.25 C 1.984375 -4.375 1.640625 -5.703125 1.640625 -7.234375 C 1.640625 -8.773438 1.984375 -10.101562 2.671875 -11.21875 C 3.359375 -12.332031 4.332031 -13.1875 5.59375 -13.78125 C 6.863281 -14.375 8.351562 -14.671875 10.0625 -14.671875 C 11.34375 -14.671875 12.507812 -14.503906 13.5625 -14.171875 C 14.613281 -13.847656 15.507812 -13.363281 16.25 -12.71875 L 15.375 -11.015625 C 14.59375 -11.617188 13.785156 -12.054688 12.953125 -12.328125 C 12.128906 -12.597656 11.1875 -12.734375 10.125 -12.734375 C 8.195312 -12.734375 6.691406 -12.257812 5.609375 -11.3125 C 4.523438 -10.363281 3.984375 -9.003906 3.984375 -7.234375 C 3.984375 -5.453125 4.519531 -4.09375 5.59375 -3.15625 C 6.675781 -2.21875 8.1875 -1.75 10.125 -1.75 C 11.1875 -1.75 12.128906 -1.882812 12.953125 -2.15625 C 13.785156 -2.425781 14.59375 -2.863281 15.375 -3.46875 L 16.25 -1.765625 C 15.507812 -1.117188 14.609375 -0.628906 13.546875 -0.296875 C 12.484375 0.0234375 11.316406 0.1875 10.046875 0.1875 Z M 10.046875 0.1875 "/></g></g></g><g fill="#100f0d" fill-opacity="1"><g transform="translate(146.459643, 19.452758)"><g><path d="M 2.34375 0 L 2.34375 -14.484375 L 4.578125 -14.484375 L 4.578125 -8.28125 L 15.265625 -8.28125 L 15.265625 -14.484375 L 17.484375 -14.484375 L 17.484375 0 L 15.265625 0 L 15.265625 -6.4375 L 4.578125 -6.4375 L 4.578125 0 Z M 2.34375 0 "/></g></g></g><g fill="#100f0d" fill-opacity="1"><g transform="translate(182.731814, 19.452758)"><g><path d="M 2.34375 0 L 2.34375 -14.484375 L 13.9375 -14.484375 L 13.9375 -12.703125 L 4.515625 -12.703125 L 4.515625 -8.265625 L 13.21875 -8.265625 L 13.21875 -6.453125 L 4.515625 -6.453125 L 4.515625 -1.78125 L 13.9375 -1.78125 L 13.9375 0 Z M 2.34375 0 "/></g></g></g><g fill="#100f0d" fill-opacity="1"><g transform="translate(214.565007, 19.452758)"><g><path d="M 8.265625 0.1875 C 7.347656 0.1875 6.457031 0.125 5.59375 0 C 4.738281 -0.132812 3.945312 -0.335938 3.21875 -0.609375 C 2.5 -0.890625 1.859375 -1.226562 1.296875 -1.625 L 2.140625 -3.375 C 2.765625 -2.945312 3.398438 -2.613281 4.046875 -2.375 C 4.691406 -2.132812 5.363281 -1.957031 6.0625 -1.84375 C 6.769531 -1.738281 7.53125 -1.6875 8.34375 -1.6875 C 9.75 -1.6875 10.835938 -1.867188 11.609375 -2.234375 C 12.390625 -2.609375 12.78125 -3.164062 12.78125 -3.90625 C 12.78125 -4.394531 12.648438 -4.769531 12.390625 -5.03125 C 12.140625 -5.300781 11.78125 -5.503906 11.3125 -5.640625 C 10.851562 -5.785156 10.296875 -5.898438 9.640625 -5.984375 L 6.3125 -6.4375 C 4.71875 -6.65625 3.546875 -7.085938 2.796875 -7.734375 C 2.054688 -8.390625 1.6875 -9.265625 1.6875 -10.359375 C 1.6875 -11.242188 1.960938 -12.007812 2.515625 -12.65625 C 3.066406 -13.300781 3.835938 -13.796875 4.828125 -14.140625 C 5.828125 -14.492188 6.992188 -14.671875 8.328125 -14.671875 C 9.171875 -14.671875 9.972656 -14.597656 10.734375 -14.453125 C 11.503906 -14.304688 12.207031 -14.097656 12.84375 -13.828125 C 13.488281 -13.554688 14.054688 -13.207031 14.546875 -12.78125 L 13.703125 -11.09375 C 12.921875 -11.707031 12.097656 -12.144531 11.234375 -12.40625 C 10.367188 -12.664062 9.378906 -12.796875 8.265625 -12.796875 C 7.359375 -12.796875 6.578125 -12.707031 5.921875 -12.53125 C 5.273438 -12.351562 4.773438 -12.09375 4.421875 -11.75 C 4.078125 -11.40625 3.90625 -10.984375 3.90625 -10.484375 C 3.90625 -9.835938 4.132812 -9.351562 4.59375 -9.03125 C 5.0625 -8.707031 5.8125 -8.476562 6.84375 -8.34375 L 10.03125 -7.890625 C 11.6875 -7.671875 12.925781 -7.253906 13.75 -6.640625 C 14.582031 -6.035156 15 -5.15625 15 -4 C 15 -3.144531 14.726562 -2.398438 14.1875 -1.765625 C 13.644531 -1.140625 12.867188 -0.65625 11.859375 -0.3125 C 10.859375 0.0195312 9.660156 0.1875 8.265625 0.1875 Z M 8.265625 0.1875 "/></g></g></g></g></g></g></g></g></svg>